<?xml version="1.0" standalone="no"?>
<!DOCTYPE svg PUBLIC "-//W3C//DTD SVG 20010904//EN"
 "http://www.w3.org/TR/2001/REC-SVG-20010904/DTD/svg10.dtd">
<svg version="1.0" xmlns="http://www.w3.org/2000/svg"
 width="270.000000pt" height="270.000000pt" viewBox="0 0 270.000000 270.000000"
 preserveAspectRatio="xMidYMid meet">
<metadata>
Created by potrace 1.11, written by Peter Selinger 2001-2013
</metadata>
<g transform="translate(0.000000,270.000000) scale(0.100000,-0.100000)"
fill="#000000" stroke="none">
<path d="M0 1350 l0 -1350 1350 0 1350 0 0 1350 0 1350 -1350 0 -1350 0 0
-1350z m825 1125 c230 -60 463 -304 538 -563 l23 -82 23 71 c12 39 45 116 73
172 41 83 66 117 127 178 99 99 156 123 281 117 102 -5 149 -26 207 -92 198
-225 36 -886 -477 -1954 -46 -95 -88 -171 -94 -169 -37 12 -303 355 -448 577
-341 522 -523 1006 -544 1450 -8 148 2 195 53 251 54 59 126 73 238 44z"/>
</g>
</svg>
