<svg id="sun" xmlns="http://www.w3.org/2000/svg" viewBox="0 0 2686.18 3116">
  <defs>
    <style>
      .cls-1 {
        fill: #f4cf16;
      }

      .cls-2 {
        fill: #9b867e;
      }

      .cls-3 {
        fill: #989a86;
      }

      .cls-4 {
        fill: #9ea28d;
      }

      .cls-5 {
        fill: #a5a19b;
      }

      .cls-6 {
        fill: #846567;
      }

      .cls-7 {
        fill: #69746c;
      }

      .cls-8 {
        fill: #80726f;
      }

      .cls-9 {
        fill: #a7a594;
      }

      .cls-10 {
        fill: #6c6b58;
      }

      .cls-11 {
        fill: #6b776f;
      }

      .cls-12 {
        fill: #af8e94;
      }

      .cls-13 {
        fill: #9fa098;
      }

      .cls-14 {
        fill: #aaaa95;
      }

      .cls-15 {
        fill: #5d5952;
      }

      .cls-16 {
        fill: #757f6d;
      }

      .cls-17 {
        fill: #806965;
      }

      .cls-18 {
        fill: #0c1f27;
      }

      .cls-19 {
        fill: #314140;
      }

      .cls-20 {
        fill: #636956;
      }

      .cls-21 {
        fill: #5d6452;
      }

      .cls-22 {
        fill: #7c7e64;
      }

      .cls-23 {
        fill: #44504c;
      }

      .cls-24 {
        fill: #293535;
      }

      .cls-25 {
        fill: #5c675b;
      }

      .cls-26 {
        fill: #525c4c;
      }

      .cls-27 {
        fill: #b2b0af;
      }

      .cls-28 {
        fill: #cbbeba;
      }

      .cls-29 {
        fill: #dccecf;
      }

      .cls-30 {
        fill: #c3bcb9;
      }

      .cls-31 {
        fill: #e8eaed;
      }

      .cls-32 {
        fill: #c1c0c1;
      }

      .cls-33 {
        fill: #bfb0ab;
      }

      .cls-34 {
        fill: #dacfcf;
      }

      .cls-35 {
        fill: #d9d3d0;
      }

      .cls-36 {
        fill: #a89e9b;
      }

      .cls-37 {
        fill: #d6cecc;
      }

      .cls-38 {
        fill: #cec8c7;
      }

      .cls-39 {
        fill: #aeaca6;
      }

      .cls-40 {
        fill: #e6e1df;
      }

      .cls-41 {
        fill: #9f9d93;
      }

      .cls-42 {
        fill: #c7cfc7;
      }

      .cls-43 {
        fill: #aaa7a1;
      }

      .cls-44 {
        fill: #ede5e3;
      }

      .cls-45 {
        fill: #e0d7d5;
      }

      .cls-46 {
        fill: #e3d9d7;
      }

      .cls-47 {
        fill: #dedcd6;
      }

      .cls-48 {
        fill: #e6e0de;
      }

      .cls-49 {
        fill: #e0d7d4;
      }

      .cls-50 {
        fill: #e3dada;
      }

      .cls-51 {
        fill: #d3cfcb;
      }

      .cls-52 {
        fill: #dcdcda;
      }

      .cls-53 {
        fill: #ded8d7;
      }

      .cls-54 {
        fill: #d5ccca;
      }

      .cls-55 {
        fill: #c6b9b9;
      }

      .cls-56 {
        fill: #c3b4b4;
      }

      .cls-57 {
        fill: #dbd1cf;
      }

      .cls-58 {
        fill: #c3b8b7;
      }

      .cls-59 {
        fill: #c6bcb8;
      }

      .cls-60 {
        fill: #cfc1c0;
      }

      .cls-61 {
        fill: #d8c8bf;
      }

      .cls-62 {
        fill: #e6dedb;
      }

      .cls-63 {
        fill: #d6ccca;
      }

      .cls-64 {
        fill: #b5aea4;
      }

      .cls-65 {
        fill: #c3bbb7;
      }

      .cls-66 {
        fill: #c8bdb8;
      }

      .cls-67 {
        fill: #e3e1e1;
      }

      .cls-68 {
        fill: #d4cecd;
      }

      .cls-69 {
        fill: #b5aba8;
      }

      .cls-70 {
        fill: #bba9a5;
      }

      .cls-71 {
        fill: #d8c8c5;
      }

      .cls-72 {
        fill: #e5e3e2;
      }

      .cls-73 {
        fill: #ededed;
      }

      .cls-74 {
        fill: #bbaaa1;
      }

      .cls-75 {
        fill: #e6e3e3;
      }

      .cls-76 {
        fill: #c5bbb6;
      }

      .cls-77 {
        fill: #d7c8c2;
      }

      .cls-78 {
        fill: #abaaa3;
      }

      .cls-79 {
        fill: #e1dcda;
      }

      .cls-80 {
        fill: #c4d7d4;
      }

      .cls-81 {
        fill: #eae5e3;
      }

      .cls-82 {
        fill: #e8e3e1;
      }

      .cls-83 {
        fill: #d7cec7;
      }

      .cls-84 {
        fill: #d7cbca;
      }

      .cls-85 {
        fill: #c4bab8;
      }

      .cls-86 {
        fill: #d5c7c7;
      }

      .cls-87 {
        fill: #ebe9e5;
      }

      .cls-88 {
        fill: #c9bfbb;
      }

      .cls-89 {
        fill: #b4a6a1;
      }

      .cls-90 {
        fill: #cdc6b9;
      }

      .cls-91 {
        fill: #c8bfba;
      }

      .cls-92 {
        fill: #ebebe8;
      }

      .cls-93 {
        fill: #d5d2cb;
      }

      .cls-94 {
        fill: #ededea;
      }

      .cls-95 {
        fill: #d8d6d3;
      }

      .cls-96 {
        fill: #c8bfbb;
      }

      .cls-97 {
        fill: #cabdba;
      }

      .cls-98 {
        fill: #eeece7;
      }

      .cls-99 {
        fill: #dfdcd6;
      }

      .cls-100 {
        fill: #e2dcd7;
      }

      .cls-101 {
        fill: #d9d6cc;
      }

      .cls-102 {
        fill: #e8e1df;
      }

      .cls-103 {
        fill: #d8d1ca;
      }

      .cls-104 {
        fill: #e4dedb;
      }

      .cls-105 {
        fill: #d3cbc7;
      }

      .cls-106 {
        fill: #e8e4e1;
      }

      .cls-107 {
        fill: #ebece8;
      }

      .cls-108 {
        fill: #e9e0de;
      }

      .cls-109 {
        fill: #e7d9da;
      }

      .cls-110 {
        fill: #d1cbc4;
      }

      .cls-111 {
        fill: #e3dad8;
      }

      .cls-112 {
        fill: #c4bfba;
      }

      .cls-113 {
        fill: #c4bcb7;
      }

      .cls-114 {
        fill: #beaba6;
      }

      .cls-115 {
        fill: #a19e99;
      }

      .cls-116 {
        fill: #c7c8c4;
      }

      .cls-117 {
        fill: #c8c8c2;
      }

      .cls-118 {
        fill: #bbb4b0;
      }

      .cls-119 {
        fill: #93a59f;
      }

      .cls-120 {
        fill: #c0bcb3;
      }

      .cls-121 {
        fill: #a2a9a5;
      }

      .cls-122 {
        fill: #c4c1bd;
      }

      .cls-123 {
        fill: #ced0cb;
      }

      .cls-124 {
        fill: #aaa09a;
      }

      .cls-125 {
        fill: #bdc3c0;
      }

      .cls-126 {
        fill: #eff0ee;
      }

      .cls-127 {
        fill: #d8d5d1;
      }

      .cls-128 {
        fill: #dbdad6;
      }

      .cls-129 {
        fill: #e9e5e1;
      }

      .cls-130 {
        fill: #aba398;
      }

      .cls-131 {
        fill: #d4d1cd;
      }

      .cls-132 {
        fill: #b2aca5;
      }

      .cls-133 {
        fill: #b2ac9e;
      }

      .cls-134 {
        fill: #717160;
      }

      .cls-135 {
        fill: #636656;
      }

      .cls-136 {
        fill: #898773;
      }

      .cls-137 {
        fill: #dedad6;
      }

      .cls-138 {
        fill: #d8d5cf;
      }

      .cls-139 {
        fill: #d9d5cf;
      }

      .cls-140 {
        fill: #dbdad7;
      }

      .cls-141 {
        fill: #dad8d1;
      }

      .cls-142 {
        fill: #e2dfdb;
      }

      .cls-143 {
        fill: #e1e1da;
      }

      .cls-144 {
        fill: #d4d0ca;
      }

      .cls-145 {
        fill: #dfdad8;
      }

      .cls-146 {
        fill: #bcb6af;
      }

      .cls-147 {
        fill: #b8b1aa;
      }

      .cls-148 {
        fill: #dcd7d4;
      }

      .cls-149 {
        fill: #b1a99e;
      }

      .cls-150 {
        fill: #aaa698;
      }

      .cls-151 {
        fill: #a59e94;
      }

      .cls-152 {
        fill: #e4e0de;
      }

      .cls-153 {
        fill: #a28390;
      }

      .cls-154 {
        fill: #b99ca5;
      }

      .cls-155 {
        fill: #ceb9b3;
      }

      .cls-156 {
        fill: #ccaeb5;
      }

      .cls-157 {
        fill: #bc9ca3;
      }

      .cls-158 {
        fill: #ac919a;
      }

      .cls-159 {
        fill: #bd9ba5;
      }

      .cls-160 {
        fill: #907b82;
      }

      .cls-161 {
        fill: #90717d;
      }

      .cls-162 {
        fill: #e3d0d8;
      }

      .cls-163 {
        fill: #9d7580;
      }

      .cls-164 {
        fill: #98838b;
      }

      .cls-165 {
        fill: #c7a9b5;
      }

      .cls-166 {
        fill: #d4b9c4;
      }

      .cls-167 {
        fill: #75666f;
      }

      .cls-168 {
        fill: #d4bec6;
      }

      .cls-169 {
        fill: #706169;
      }

      .cls-170 {
        fill: #d4b6c4;
      }

      .cls-171 {
        fill: #887379;
      }

      .cls-172 {
        fill: #86727e;
      }

      .cls-173 {
        fill: #e5d0d8;
      }

      .cls-174 {
        fill: #483d44;
      }

      .cls-175 {
        fill: #cccac5;
      }

      .cls-176 {
        fill: #bbbdb8;
      }

      .cls-177 {
        fill: #bfb7be;
      }

      .cls-178 {
        fill: #d6d9d8;
      }

      .cls-179 {
        fill: #d7dbd8;
      }

      .cls-180 {
        fill: #ccd2d0;
      }

      .cls-181 {
        fill: #ccd4d0;
      }

      .cls-182 {
        fill: #1b2833;
      }

      .cls-183 {
        fill: #cfcfc9;
      }

      .cls-184 {
        fill: #c9cac5;
      }

      .cls-185 {
        fill: #d7dade;
      }

      .cls-186 {
        fill: #bfcbc6;
      }

      .cls-187 {
        fill: #bec9cb;
      }

      .cls-188 {
        fill: #a0a09b;
      }

      .cls-189 {
        fill: #d5d8d8;
      }

      .cls-190 {
        fill: #bebab8;
      }

      .cls-191 {
        fill: #232733;
      }

      .cls-192 {
        fill: #ab9297;
      }

      .cls-193 {
        fill: #d7c8ca;
      }

      .cls-194 {
        fill: #c3b2af;
      }

      .cls-195 {
        fill: #cbb6ba;
      }

      .cls-196 {
        fill: #a4838d;
      }

      .cls-197 {
        fill: #bfafad;
      }

      .cls-198 {
        fill: #e6e1dd;
      }

      .cls-199 {
        fill: #dbcbcc;
      }

      .cls-200 {
        fill: #d9c0c5;
      }

      .cls-201 {
        fill: #ded1d2;
      }

      .cls-202 {
        fill: #e1d6d4;
      }

      .cls-203 {
        fill: #cdbdb9;
      }

      .cls-204 {
        fill: #eae5e2;
      }

      .cls-205 {
        fill: #d0bdbd;
      }

      .cls-206 {
        fill: #a69191;
      }

      .cls-207 {
        fill: #e9dfdf;
      }

      .cls-208 {
        fill: #e1c9cb;
      }

      .cls-209 {
        fill: #e0d4d3;
      }

      .cls-210 {
        fill: #d3bcbd;
      }

      .cls-211 {
        fill: #f0e8e5;
      }

      .cls-212 {
        fill: #e1d2d3;
      }

      .cls-213 {
        fill: #baa0a2;
      }

      .cls-214 {
        fill: #d8c1c2;
      }

      .cls-215 {
        fill: #9f7a78;
      }

      .cls-216 {
        fill: #ae8d8e;
      }

      .cls-217 {
        fill: #d7b9b9;
      }

      .cls-218 {
        fill: #a68588;
      }

      .cls-219 {
        fill: #885054;
      }

      .cls-220 {
        fill: #7c4950;
      }

      .cls-221 {
        fill: #694f53;
      }

      .cls-222 {
        fill: #7f5259;
      }

      .cls-223 {
        fill: #513942;
      }

      .cls-224 {
        fill: #57404a;
      }

      .cls-225 {
        fill: #212531;
      }

      .cls-226 {
        fill: #a0868a;
      }

      .cls-227 {
        fill: #3d303b;
      }

      .cls-228 {
        fill: #56666f;
      }

      .cls-229 {
        fill: #6d7777;
      }

      .cls-230 {
        fill: #a4b7b3;
      }

      .cls-231 {
        fill: #455854;
      }

      .cls-232 {
        fill: #b6b1af;
      }

      .cls-233 {
        fill: #9bcfc3;
      }

      .cls-234 {
        fill: #84837f;
      }

      .cls-235 {
        fill: #7a7b77;
      }

      .cls-236 {
        fill: #bdc3bf;
      }

      .cls-237 {
        fill: #4a575a;
      }

      .cls-238 {
        fill: #a29394;
      }

      .cls-239 {
        fill: #a6a9aa;
      }

      .cls-240 {
        fill: #414c4a;
      }

      .cls-241 {
        fill: #5a686b;
      }

      .cls-242 {
        fill: #636160;
      }

      .cls-243 {
        fill: #9d8e8d;
      }

      .cls-244 {
        fill: #2e464a;
      }

      .cls-245 {
        fill: #989497;
      }

      .cls-246 {
        fill: #9e8789;
      }

      .cls-247 {
        fill: #b4bbbd;
      }

      .cls-248 {
        fill: #727b79;
      }

      .cls-249 {
        fill: #a99698;
      }

      .cls-250 {
        fill: #b5c2c5;
      }

      .cls-251 {
        fill: #bdc5c4;
      }

      .cls-252 {
        fill: #c8d3d6;
      }

      .cls-253 {
        fill: #c5d0d3;
      }

      .cls-254 {
        fill: #d4d8dc;
      }

      .cls-255 {
        fill: #769198;
      }

      .cls-256 {
        fill: #9cb4b8;
      }

      .cls-257 {
        fill: #92b1b4;
      }

      .cls-258 {
        fill: #a1aeb6;
      }

      .cls-259 {
        fill: #94beb6;
      }

      .cls-260 {
        fill: #94b0b7;
      }

      .cls-261 {
        fill: #bacdd1;
      }

      .cls-262 {
        fill: #82a3a1;
      }

      .cls-263 {
        fill: #94b5ad;
      }

      .cls-264 {
        fill: #527c85;
      }

      .cls-265 {
        fill: #718b92;
      }

      .cls-266 {
        fill: #5d9a98;
      }

      .cls-267 {
        fill: #65848e;
      }

      .cls-268 {
        fill: #708f9b;
      }

      .cls-269 {
        fill: #527d85;
      }

      .cls-270 {
        fill: #335c66;
      }

      .cls-271 {
        fill: #52818f;
      }

      .cls-272 {
        fill: #488085;
      }

      .cls-273 {
        fill: #7ea1a3;
      }

      .cls-274 {
        fill: #5d9295;
      }

      .cls-275 {
        fill: #063649;
      }

      .cls-276 {
        fill: #375e6a;
      }

      .cls-277 {
        fill: #174452;
      }

      .cls-278 {
        fill: #023440;
      }

      .cls-279 {
        fill: #b5bbb8;
      }

      .cls-280 {
        fill: #627579;
      }

      .cls-281 {
        fill: #9c9190;
      }

      .cls-282 {
        fill: #c4cfd0;
      }

      .cls-283 {
        fill: #4f4c52;
      }

      .cls-284 {
        fill: #a3b0b8;
      }

      .cls-285 {
        fill: #6b666a;
      }

      .cls-286 {
        fill: #abaaac;
      }

      .cls-287 {
        fill: #ae9c9f;
      }

      .cls-288 {
        fill: #767475;
      }

      .cls-289 {
        fill: #968688;
      }

      .cls-290 {
        fill: #676a6d;
      }

      .cls-291 {
        fill: #45444c;
      }

      .cls-292 {
        fill: #979091;
      }

      .cls-293 {
        fill: #737677;
      }

      .cls-294 {
        fill: #bcc1ca;
      }

      .cls-295 {
        fill: #667d84;
      }

      .cls-296 {
        fill: #8f898d;
      }

      .cls-297 {
        fill: #97a5a9;
      }

      .cls-298 {
        fill: #aac8ca;
      }

      .cls-299 {
        fill: #bdcacc;
      }

      .cls-300 {
        fill: #a3b6b6;
      }

      .cls-301 {
        fill: #a8abb4;
      }

      .cls-302 {
        fill: #c7d3db;
      }

      .cls-303 {
        fill: #b1b3af;
      }

      .cls-304 {
        fill: #dde2e6;
      }

      .cls-305 {
        fill: #757f86;
      }

      .cls-306 {
        fill: #cbd4d7;
      }

      .cls-307 {
        fill: #cad3d7;
      }

      .cls-308 {
        fill: #bbb7b9;
      }

      .cls-309 {
        fill: #cad3d6;
      }

      .cls-310 {
        fill: #8198a0;
      }

      .cls-311 {
        fill: #82a0a4;
      }

      .cls-312 {
        fill: #85939f;
      }

      .cls-313 {
        fill: #94b8be;
      }

      .cls-314 {
        fill: #8f9ca4;
      }

      .cls-315 {
        fill: #84a5a9;
      }

      .cls-316 {
        fill: #6a8a98;
      }

      .cls-317 {
        fill: #7d96a1;
      }

      .cls-318 {
        fill: #738f98;
      }

      .cls-319 {
        fill: #517f8b;
      }

      .cls-320 {
        fill: #45757e;
      }

      .cls-321 {
        fill: #95acb4;
      }

      .cls-322 {
        fill: #b0c6d6;
      }

      .cls-323 {
        fill: #28556a;
      }

      .cls-324 {
        fill: #193f4c;
      }

      .cls-325 {
        fill: #0a3d52;
      }

      .cls-326 {
        fill: #717880;
      }

      .cls-327 {
        fill: #dfdcd8;
      }

      .cls-328 {
        fill: #f3f3f3;
      }

      .cls-329 {
        fill: #ececeb;
      }

      .cls-330 {
        fill: #d4c5c4;
      }

      .cls-331 {
        fill: #e2cfcc;
      }

      .cls-332 {
        fill: #cbbdbc;
      }

      .cls-333 {
        fill: #c3b2b1;
      }

      .cls-334 {
        fill: #cabbb9;
      }

      .cls-335 {
        fill: #d8ceca;
      }

      .cls-336 {
        fill: #d4c6c1;
      }

      .cls-337 {
        fill: #e3d2d0;
      }

      .cls-338 {
        fill: #e0d1d1;
      }

      .cls-339 {
        fill: #dbc9c2;
      }

      .cls-340 {
        fill: #c4bfb7;
      }

      .cls-341 {
        fill: #ede9e7;
      }
    </style>
  </defs>
  <title>toni_low_poly</title>
  <polygon class="cls-1" points="1422.5 563.84 1715 0 1831.33 673.38 2561 162 2044.16 890.9 2686.18 1042.9 2240.16 1381.5 2686.18 1720.1 2130.62 1790.33 2544 2657 1831.33 2089.62 1725 2864 1414.5 2318.16 987 3116 1013.67 2089.62 429 2567 790.38 1796.33 0 1842 680.84 1387.5 234.81 1048.9 790.38 978.67 576 438 1169.94 864 797 45 1422.5 563.84"/>
  <g>
    <polygon class="cls-2" points="1896.21 1496.12 1882.76 1428.88 1869.32 1549.92 1896.21 1496.12"/>
    <polygon class="cls-3" points="2003.81 911.07 1923.11 877.45 1854.37 1011.94 2003.81 911.07"/>
    <polygon class="cls-4" points="2044.16 890.9 1923.11 877.45 2003.81 911.07 2044.16 890.9"/>
    <polygon class="cls-5" points="1734.82 1765.11 1761.72 1738.21 1802.07 1590.27 1734.82 1765.11"/>
    <polygon class="cls-6" points="1829 1697.87 1829 1657.52 1842.43 1576.82 1802.09 1590.27 1829 1697.87"/>
    <polygon class="cls-7" points="2084.51 944.7 2044.16 890.9 2003.81 911.07 2084.51 944.7"/>
    <polygon class="cls-8" points="1909.66 1442.33 1882.76 1428.88 1896.21 1496.12 1909.66 1442.33"/>
    <polygon class="cls-9" points="1854.37 1011.94 1923.11 877.45 1814.77 917.8 1854.37 1011.94"/>
    <polygon class="cls-10" points="1022 1065.74 1062.35 1132.99 1089.25 1038.84 1022 1065.74"/>
    <polygon class="cls-11" points="1129.6 944.7 1169.94 864 1116.15 917.8 1129.6 944.7"/>
    <polygon class="cls-12" points="1788.62 1738 1828.97 1697.65 1761.72 1738 1788.62 1738"/>
    <polygon class="cls-13" points="1129.6 944.7 1062.35 1011.94 1089.25 1038.84 1129.6 944.7"/>
    <polygon class="cls-14" points="1923.11 877 1788.62 877 1788.31 877.33 1814.77 917.46 1923.11 877"/>
    <polygon class="cls-15" points="1842.42 1576.82 1869.32 1549.92 1802.07 1590.27 1842.42 1576.82"/>
    <polygon class="cls-11" points="1116.15 918.1 1089.25 945 1129.6 945 1116.15 918.1"/>
    <polygon class="cls-16" points="1854.37 1011.94 2084.51 944.7 2003.81 911.07 1854.37 1011.94"/>
    <polygon class="cls-17" points="1882.76 1428.88 1855.87 1442.33 1869.32 1549.92 1882.76 1428.88"/>
    <polygon class="cls-18" points="1896.21 1388.53 1909.66 1307.83 1841.67 1348.18 1896.21 1388.53"/>
    <polygon class="cls-19" points="1909.66 1307.83 1950.01 1240.58 1841.67 1348.18 1909.66 1307.83"/>
    <polygon class="cls-18" points="1855.87 1401.98 1896.21 1388.53 1841.67 1348.18 1855.87 1401.98"/>
    <polygon class="cls-20" points="1963.46 1093 2017.26 1052.65 1854.37 1093 1963.46 1093"/>
    <polygon class="cls-21" points="1854 1119.54 1854 1227.13 2003.44 1132.99 1854 1092.64 1854 1119.54"/>
    <polygon class="cls-22" points="1854 1092.64 2016.89 1052.29 1854 1011.94 1854 1092.64"/>
    <polygon class="cls-15" points="1869.32 1549.92 1855.87 1442.33 1802.07 1590.27 1869.32 1549.92"/>
    <polygon class="cls-23" points="1950.01 1240.58 2003.81 1132.99 1854.37 1227.13 1950.01 1240.58"/>
    <polygon class="cls-24" points="1856 1442.33 1856 1401.98 1802.2 1590.27 1856 1442.33"/>
    <polygon class="cls-19" points="1841.67 1348.18 1950.01 1240.58 1854.37 1227.13 1841.67 1348.18"/>
    <polygon class="cls-25" points="1854.37 1011.94 2017.26 1052.29 2044.16 1011.94 2084.51 944.7 1854.37 1011.94"/>
    <polygon class="cls-26" points="2003.81 1133.35 1963.46 1093 1854.37 1093 2003.81 1133.35"/>
    <polygon class="cls-27" points="1116.15 1308.1 1116.15 1335 1183.39 1335 1116.15 1308.1"/>
    <polygon class="cls-28" points="1331.34 1604 1385.13 1698.15 1398.58 1604 1358.24 1604 1331.34 1604"/>
    <polygon class="cls-29" points="1331 1698 1385.13 1698 1331 1603.72 1331 1698"/>
    <polygon class="cls-30" points="1438.93 1388.53 1465.83 1469.22 1519.63 1361.63 1438.93 1388.53"/>
    <polygon class="cls-31" points="1116 1092.64 1116 1200.24 1169.8 1186.79 1116 1092.64"/>
    <polygon class="cls-32" points="1519.63 1361.63 1465.83 1469.22 1573.43 1401.98 1519.63 1361.63"/>
    <polygon class="cls-33" points="1654.12 1254 1640.67 1146.4 1613.78 1254 1654.12 1254"/>
    <polygon class="cls-34" points="1465.83 1469.22 1546.53 1509.57 1573.43 1401.98 1465.83 1469.22"/>
    <polygon class="cls-35" points="1546.53 1509.57 1640.67 1415.43 1573.43 1401.98 1546.53 1509.57"/>
    <polygon class="cls-36" points="1439 1294.38 1439 1388.53 1492.8 1334.73 1439 1186.79 1439 1227.13 1439 1294.38"/>
    <polygon class="cls-37" points="1533.08 1280.93 1438.93 1186.79 1492.73 1334.73 1533.08 1280.93"/>
    <polygon class="cls-38" points="1707.92 1159.89 1640.67 1146.44 1654.12 1254.03 1707.92 1159.89"/>
    <polygon class="cls-39" points="1358.24 1186.79 1264.09 1254.03 1290.99 1280.93 1358.24 1186.79"/>
    <polygon class="cls-40" points="1479.28 1119.54 1385.13 1173.34 1438.93 1186.79 1479.28 1119.54"/>
    <polygon class="cls-41" points="1533.08 1738.21 1546.53 1751.66 1492.73 1651.75 1533.08 1738.21"/>
    <polygon class="cls-42" points="1358.24 1186.79 1290.99 1280.93 1304.44 1307.83 1277.54 1321.28 1331.34 1307.83 1344.79 1240.58 1358.24 1186.79"/>
    <polygon class="cls-43" points="1438.93 1388.53 1519.63 1361.63 1492.73 1334.73 1438.93 1388.53"/>
    <polygon class="cls-44" points="1116.15 1334.73 1116.15 1334.73 1075.8 1469.22 1196.84 1415.43 1116.15 1334.73"/>
    <polygon class="cls-45" points="1196.84 1625.24 1237.19 1536.47 1156.49 1697.87 1169.94 1684.42 1196.84 1625.24"/>
    <polygon class="cls-46" points="1183.39 1549.92 1156.49 1697.87 1237.19 1536.47 1183.39 1549.92"/>
    <polygon class="cls-47" points="1196.84 1415.56 1183.39 1335 1116 1335 1116 1334.73 1116.07 1334.8 1196.84 1415.56"/>
    <polygon class="cls-48" points="1250.64 1563.37 1223.74 1670.97 1277.54 1590.27 1250.64 1563.37"/>
    <polygon class="cls-49" points="1331 1697.87 1331 1603.72 1223.57 1670.97 1277.29 1684.42 1331 1697.87"/>
    <polygon class="cls-50" points="1277.54 1590.27 1223.74 1670.97 1331.34 1603.72 1277.54 1590.27"/>
    <polygon class="cls-51" points="1250.64 1401.98 1331.34 1307.83 1277.54 1321.28 1250.64 1401.98"/>
    <polygon class="cls-52" points="1183.39 1334.73 1196.84 1415.43 1277.54 1321.28 1183.39 1334.73"/>
    <polygon class="cls-53" points="1156.49 1079.19 1169.94 1186.79 1210.29 1200.24 1156.49 1079.19"/>
    <polygon class="cls-54" points="1237.19 1079 1156.49 1079 1210.29 1200.05 1237.19 1079"/>
    <polygon class="cls-55" points="1492.73 1651.75 1452.38 1576.82 1385.13 1697.87 1492.73 1651.75"/>
    <polygon class="cls-56" points="1385.13 1697.87 1452.38 1576.82 1398.58 1603.72 1385.13 1697.87"/>
    <polygon class="cls-57" points="1317.89 1092.64 1237.19 1079.19 1210.29 1200.24 1317.89 1092.64"/>
    <polygon class="cls-58" points="1466 1536.47 1533.25 1630.62 1466 1469.22 1466 1536.47"/>
    <polygon class="cls-59" points="1452.38 1576.82 1533.08 1630.62 1465.83 1536.47 1452.38 1576.82"/>
    <polygon class="cls-60" points="1465.83 1469.22 1533.08 1630.62 1546.53 1509.57 1465.83 1469.22"/>
    <polygon class="cls-61" points="1264.09 1455.78 1290.99 1388.53 1331.34 1307.83 1250.64 1401.98 1237.19 1536.47 1250.64 1496.12 1264.09 1455.78"/>
    <polygon class="cls-62" points="1250.64 1563.37 1237.19 1536.47 1223.74 1670.97 1250.64 1563.37"/>
    <polygon class="cls-63" points="1220.07 1469.22 1183.39 1549.92 1237.19 1536.47 1250.64 1401.98 1220.07 1469.22"/>
    <polygon class="cls-62" points="1237.19 1536.47 1196.84 1625.24 1169.94 1684.42 1223.74 1670.97 1237.19 1536.47"/>
    <polygon class="cls-64" points="1533.08 1738.21 1492.73 1651.75 1479.28 1724.76 1533.08 1738.21"/>
    <polygon class="cls-65" points="1479.28 1724.76 1492.73 1651.75 1438.93 1711.32 1479.28 1724.76"/>
    <polygon class="cls-66" points="1438.93 1711.32 1492.73 1651.75 1385.13 1697.87 1438.93 1711.32"/>
    <polygon class="cls-67" points="1277.54 1321.28 1196.84 1415.43 1250.64 1401.98 1277.54 1321.28"/>
    <polygon class="cls-68" points="1559.98 1146 1492.73 1146 1533.08 1280.49 1559.98 1146"/>
    <polygon class="cls-69" points="1613.78 1254.03 1559.98 1146.44 1533.08 1280.93 1613.78 1254.03"/>
    <polygon class="cls-70" points="1654.12 1254.03 1694.47 1267.48 1707.92 1159.89 1654.12 1254.03"/>
    <polygon class="cls-71" points="1237.19 1227.13 1264.09 1254.03 1317.89 1092.64 1210.29 1200.24 1237.19 1227.13"/>
    <polygon class="cls-37" points="1533.08 1280.93 1492.73 1146.44 1438.93 1186.79 1533.08 1280.93"/>
    <polygon class="cls-72" points="1156.49 1079.19 1116.15 1092.64 1169.94 1186.79 1156.49 1079.19"/>
    <polygon class="cls-73" points="1317.89 1092.64 1546.53 1018.96 1506.18 1019.88 1264.09 1025.39 1304.44 1065.74 1317.89 1092.64"/>
    <polygon class="cls-74" points="1694.47 1267.48 1788.62 1200.24 1707.92 1159.89 1694.47 1267.48"/>
    <polygon class="cls-75" points="1492.73 1106.09 1573.43 1065.74 1546.53 1018.96 1317.89 1092.64 1492.73 1106.09"/>
    <polygon class="cls-76" points="1640.67 1146 1559.98 1146 1613.78 1253.6 1640.67 1146"/>
    <polygon class="cls-51" points="1546.53 1509.57 1707.92 1442.33 1640.67 1415.43 1546.53 1509.57"/>
    <polygon class="cls-77" points="1358.24 1186.79 1317.89 1092.64 1264.09 1254.03 1358.24 1186.79"/>
    <polygon class="cls-78" points="1640.67 1415.43 1707.92 1442.33 1694.47 1401.98 1640.67 1415.43"/>
    <polygon class="cls-79" points="1438.93 1186.79 1492.73 1146.44 1479.28 1119.54 1438.93 1186.79"/>
    <polygon class="cls-80" points="1707.92 1442.33 1721.37 1388.53 1694.47 1401.98 1707.92 1442.33"/>
    <polygon class="cls-81" points="1479.28 1119.54 1492.73 1106.09 1317.89 1092.64 1385.13 1173.34 1479.28 1119.54"/>
    <polygon class="cls-82" points="1385.13 1173.34 1317.89 1092.64 1358.24 1186.79 1385.13 1173.34"/>
    <polygon class="cls-83" points="1116.15 1657.52 1156.49 1697.87 1183.39 1549.92 1116.15 1657.52"/>
    <polygon class="cls-84" points="1277.54 1846 1452.38 2020.84 1385.13 1846 1277.54 1846"/>
    <polygon class="cls-85" points="1452.38 2020.65 1600.33 1953.4 1385.13 1845.81 1452.38 2020.65"/>
    <polygon class="cls-86" points="1317.89 2061 1452.38 2020.65 1277.54 1845.81 1317.89 2061"/>
    <polygon class="cls-87" points="1116 1092.64 1089.17 1106.09 1062.24 1132.99 1116 1200.24 1116 1092.64"/>
    <polygon class="cls-88" points="1438.93 1818.91 1385.13 1845.81 1600.33 1953.4 1492.73 1792.01 1438.93 1818.91"/>
    <polygon class="cls-89" points="1116.15 1200.24 1048.9 1267.48 1089.25 1240.58 1116.15 1200.24"/>
    <polygon class="cls-90" points="1062.35 1132.99 1048.9 1267.48 1116.15 1200.24 1062.35 1132.99"/>
    <polygon class="cls-91" points="1533.08 1765.11 1600.33 1953.4 1546.53 1751.66 1533.08 1765.11"/>
    <polygon class="cls-92" points="1089 1038.84 1089 1092.64 1169.82 864 1129.41 944.7 1089 1038.84"/>
    <polygon class="cls-93" points="1089 1092.64 1089 1038.84 1062.1 1132.99 1089 1106.09 1089 1092.64"/>
    <polygon class="cls-94" points="1196.84 1025.39 1169.94 864 1156.49 1038.84 1196.84 1025.39"/>
    <polygon class="cls-95" points="1089.25 1240.58 1048.9 1267.48 1075.8 1280.93 1089.25 1240.58"/>
    <polygon class="cls-96" points="1492.73 1792.01 1600.33 1953.4 1533.08 1765.11 1492.73 1792.01"/>
    <polygon class="cls-97" points="1452.38 1576.82 1492.73 1651.75 1546.53 1751.66 1533.08 1630.62 1452.38 1576.82"/>
    <polygon class="cls-98" points="1156.49 1038.84 1169.94 864 1089.25 1092.64 1156.49 1038.84"/>
    <polygon class="cls-99" points="1062.35 1792.01 1116.15 1899.61 1183.39 1778.56 1062.35 1792.01"/>
    <polygon class="cls-100" points="1156.49 1697.87 1062.35 1792.01 1183.39 1778.56 1156.49 1697.87"/>
    <polygon class="cls-101" points="1116.15 1657.52 1062.35 1792.01 1156.49 1697.87 1116.15 1657.52"/>
    <polygon class="cls-102" points="1116.15 1899.61 1223.74 2034.1 1210.29 1818.91 1116.15 1899.61"/>
    <polygon class="cls-103" points="1035.45 1617.17 1062.35 1792.01 1116.15 1657.52 1035.45 1617.17"/>
    <polygon class="cls-104" points="1183.39 1778.56 1116.15 1899.61 1210.29 1818.91 1183.39 1778.56"/>
    <polygon class="cls-105" points="1075.8 1617 1035.45 1617 1116.15 1657.35 1075.8 1617"/>
    <polygon class="cls-106" points="1210.29 1818.91 1223.74 2034.1 1277.54 1845.81 1210.29 1818.91"/>
    <polygon class="cls-95" points="1116 1335 1116 1307.83 1075.72 1280.93 1048.86 1267.62 1116.06 1335 1116 1335"/>
    <polygon class="cls-107" points="1048.9 1267.48 1035.45 1375.08 1116.15 1334.73 1048.9 1267.48"/>
    <polygon class="cls-108" points="1035.45 1375.08 1022 1482.67 1075.8 1469.22 1035.45 1375.08"/>
    <polygon class="cls-109" points="1076 1469.22 1022.2 1482.67 1076 1617.17 1076 1469.22"/>
    <polygon class="cls-110" points="1022 1482.51 1035.45 1617 1075.8 1617 1022 1482.51"/>
    <polygon class="cls-111" points="1223.74 2034.1 1317.89 2061 1277.54 1845.81 1223.74 2034.1"/>
    <polygon class="cls-112" points="1788.62 1200.24 1854.37 1227.13 1775.17 1159.89 1788.62 1200.24"/>
    <polygon class="cls-113" points="1802.07 1590.27 1855.87 1401.98 1775.17 1482.67 1802.07 1590.27"/>
    <polygon class="cls-114" points="1694.47 1267.48 1734.82 1307.83 1854.37 1227.13 1788.62 1200.24 1694.47 1267.48"/>
    <polygon class="cls-5" points="1748.27 1617.17 1734.82 1765.11 1802.07 1590.27 1748.27 1617.17"/>
    <polygon class="cls-115" points="1841.67 1348.18 1854.37 1227.13 1734.82 1307.83 1841.67 1348.18"/>
    <polygon class="cls-116" points="1854 1092.64 1854 1011.94 1774.8 1159.89 1854 1092.64"/>
    <polygon class="cls-117" points="1854 1227.13 1854 1119.54 1854 1092.64 1774.8 1159.89 1854 1227.13"/>
    <polygon class="cls-118" points="1802.07 1590.27 1775.17 1482.67 1748.27 1617.17 1802.07 1590.27"/>
    <polygon class="cls-119" points="1748.27 1334.73 1841.67 1348.18 1734.82 1307.83 1748.27 1334.73"/>
    <polygon class="cls-120" points="1546.53 1751.66 1627.22 1765.11 1533.08 1630.62 1546.53 1751.66"/>
    <polygon class="cls-121" points="1748 1334.73 1748 1361.63 1855.73 1401.98 1841.47 1348.18 1748 1334.73"/>
    <polygon class="cls-122" points="1775.17 1482.67 1855.87 1401.98 1748.27 1361.63 1775.17 1482.67"/>
    <polygon class="cls-123" points="1707.92 1442.33 1775.17 1482.67 1721.37 1388.53 1707.92 1442.33"/>
    <polygon class="cls-124" points="1627.22 1765 1734.82 1765 1748.27 1617.06 1627.22 1765"/>
    <polygon class="cls-125" points="1775.17 1482.67 1748.27 1361.63 1721.37 1388.53 1775.17 1482.67"/>
    <polygon class="cls-126" points="1264.09 1025 1169.94 863.61 1196.84 1025 1264.09 1025"/>
    <polygon class="cls-127" points="1573.43 1065.74 1667.57 1079.19 1854.37 1011.94 1546.53 1018.96 1573.43 1065.74"/>
    <polygon class="cls-128" points="1854.37 1011.94 1814.77 917.8 1788.31 877.55 1573.43 951.22 1854.37 1011.94"/>
    <polygon class="cls-129" points="1788.31 877.55 1788.24 877.45 1169.94 864 1573.43 951.22 1788.31 877.55"/>
    <polygon class="cls-130" points="1681.02 1859.15 1734.82 1765 1627.22 1765 1681.02 1859.15"/>
    <polygon class="cls-131" points="1775.17 1159.89 1854.37 1011.94 1667.57 1079.19 1775.17 1159.89"/>
    <polygon class="cls-132" points="1600.33 1953.4 1681.02 1859.26 1627.22 1765.11 1600.33 1953.4"/>
    <polygon class="cls-133" points="1169.94 864 1129.6 877.45 1116.15 917.8 1169.94 864"/>
    <polygon class="cls-134" points="1089.25 945 1062.35 1012.25 1129.6 945 1089.25 945"/>
    <polygon class="cls-11" points="1129.6 877.45 1089.25 944.7 1116.15 917.8 1129.6 877.45"/>
    <polygon class="cls-135" points="1022 1119.54 1062.35 1132.99 1022 1065.74 1022 1119.54"/>
    <polygon class="cls-136" points="1062.35 1011.94 1022 1065.74 1089.25 1038.84 1062.35 1011.94"/>
    <polygon class="cls-137" points="1304.44 1065.74 1237.19 1079.19 1317.89 1092.64 1304.44 1065.74"/>
    <polygon class="cls-138" points="1156.49 1038.84 1116.15 1092.64 1196.84 1025.39 1156.49 1038.84"/>
    <polygon class="cls-139" points="1237.19 1079 1264.09 1025.2 1156.49 1079 1237.19 1079"/>
    <polygon class="cls-140" points="1264.09 1025 1196.84 1025 1156.49 1078.8 1264.09 1025"/>
    <polygon class="cls-141" points="1304.44 1065.74 1264.09 1025.39 1237.19 1079.19 1304.44 1065.74"/>
    <polygon class="cls-142" points="1089.25 1093 1116.15 1093 1156.49 1039.2 1089.25 1093"/>
    <polygon class="cls-47" points="1196.84 1025.39 1116.15 1092.64 1156.49 1079.19 1196.84 1025.39"/>
    <polygon class="cls-143" points="1089 1106.09 1116.15 1093 1089 1093 1089 1106.09"/>
    <polygon class="cls-144" points="1559.98 1146.44 1573.43 1065.74 1533.08 1106.09 1559.98 1146.44"/>
    <polygon class="cls-145" points="1493 1146.44 1533.21 1106.09 1573.63 1065.74 1493 1106.09 1493 1146.44"/>
    <polygon class="cls-146" points="1640.67 1146 1573.43 1065.3 1559.98 1146 1640.67 1146"/>
    <polygon class="cls-147" points="1667.57 1079.19 1573.43 1065.74 1640.67 1146.44 1667.57 1079.19"/>
    <polygon class="cls-148" points="1533.08 1105.65 1492.73 1146 1559.98 1146 1533.08 1105.65"/>
    <polygon class="cls-149" points="1775.17 1160 1667.57 1079.3 1707.92 1160 1775.17 1160"/>
    <polygon class="cls-150" points="1788.62 1200.35 1775.17 1160 1707.92 1160 1788.62 1200.35"/>
    <polygon class="cls-151" points="1707.92 1159.89 1667.57 1079.19 1640.67 1146.44 1707.92 1159.89"/>
    <polygon class="cls-152" points="1493 1146.44 1493 1106.09 1479.55 1119.54 1493 1146.44"/>
    <polygon class="cls-153" points="1438.93 1711.32 1385.13 1697.87 1452.38 1738.21 1438.93 1711.32"/>
    <polygon class="cls-154" points="1344.79 1724.9 1385.13 1698 1331.34 1698 1344.79 1724.9"/>
    <polygon class="cls-155" points="1169.94 1684.42 1183.39 1697.87 1223.74 1670.97 1169.94 1684.42"/>
    <polygon class="cls-156" points="1277.54 1684.42 1223.74 1670.97 1250.64 1711.32 1331.34 1697.87 1277.54 1684.42"/>
    <polygon class="cls-157" points="1223.74 1670.97 1183.39 1697.87 1250.64 1711.32 1223.74 1670.97"/>
    <polygon class="cls-158" points="1452.38 1738.21 1385.13 1697.87 1344.79 1724.76 1452.38 1738.21"/>
    <polygon class="cls-159" points="1331.34 1697.87 1250.64 1711.32 1344.79 1724.76 1331.34 1697.87"/>
    <polygon class="cls-160" points="1479.28 1724.76 1438.93 1711.32 1452.38 1738.21 1479.28 1724.76"/>
    <polygon class="cls-161" points="1412.3 1778.56 1493 1792.01 1493 1765.11 1412.3 1778.56"/>
    <polygon class="cls-162" points="1183.39 1778.56 1210.29 1818.91 1250.64 1765.11 1183.39 1778.56"/>
    <polygon class="cls-163" points="1331.34 1779 1492.73 1792.45 1412.03 1779 1331.34 1779"/>
    <polygon class="cls-164" points="1493 1792.01 1533.08 1765 1493 1765 1493 1792.01"/>
    <polygon class="cls-165" points="1385.13 1845.81 1438.93 1818.91 1492.73 1792.01 1331.34 1778.56 1385.13 1845.81"/>
    <polygon class="cls-166" points="1210.29 1738.21 1169.94 1711.32 1156.49 1697.87 1183.39 1778.56 1250.64 1765.11 1210.29 1738.21"/>
    <polygon class="cls-167" points="1452.38 1738 1506.18 1738 1533.08 1738 1479.28 1724.55 1452.38 1738"/>
    <polygon class="cls-168" points="1210.29 1818.91 1277.54 1845.81 1331.34 1778.56 1210.29 1818.91"/>
    <polygon class="cls-169" points="1492.73 1765 1533 1765 1533 1751.66 1492.73 1765"/>
    <polygon class="cls-170" points="1277.54 1846 1385.13 1846 1331.34 1778.75 1277.54 1846"/>
    <polygon class="cls-171" points="1533 1765.11 1546.53 1752 1533 1752 1533 1765.11"/>
    <polygon class="cls-172" points="1169.94 1684.55 1156.49 1698 1183.39 1698 1169.94 1684.55"/>
    <polygon class="cls-173" points="1250.64 1765.11 1210.29 1818.91 1331.34 1778.56 1250.64 1765.11"/>
    <polygon class="cls-174" points="1533 1752 1546.53 1752 1533 1738.21 1533 1752"/>
    <polygon class="cls-175" points="1412.04 1743.11 1452.38 1738.21 1344.79 1724.76 1412.04 1743.11"/>
    <polygon class="cls-176" points="1331.34 1779 1412.03 1779 1358.24 1765.55 1331.34 1779"/>
    <polygon class="cls-175" points="1358.24 1765.11 1412.04 1743.11 1344.79 1724.76 1358.24 1765.11"/>
    <polygon class="cls-177" points="1183.39 1698 1156.49 1698 1237.19 1738.35 1183.39 1698"/>
    <polygon class="cls-178" points="1250.64 1711.32 1264.09 1751.66 1344.79 1724.76 1250.64 1711.32"/>
    <polygon class="cls-179" points="1304.44 1765 1358.24 1765 1344.79 1724.65 1304.44 1765"/>
    <polygon class="cls-180" points="1210.29 1738.21 1250.64 1765.11 1237.19 1738.21 1156.49 1697.87 1169.94 1711.32 1210.29 1738.21"/>
    <polygon class="cls-181" points="1264.09 1751.66 1304.44 1765.11 1344.79 1724.76 1264.09 1751.66"/>
    <polygon class="cls-182" points="1492.73 1765.11 1533.08 1751.66 1506.18 1738.21 1492.73 1765.11"/>
    <polygon class="cls-179" points="1264.09 1751.66 1331.34 1778.56 1304.44 1765.11 1264.09 1751.66"/>
    <polygon class="cls-183" points="1250.64 1765.11 1331.34 1778.56 1264.09 1751.66 1250.64 1765.11"/>
    <polygon class="cls-184" points="1237.19 1738.21 1250.64 1765.11 1264.09 1751.66 1237.19 1738.21"/>
    <polygon class="cls-176" points="1304.44 1765 1331.34 1778.45 1358.24 1765 1304.44 1765"/>
    <polygon class="cls-185" points="1250.64 1711.32 1237.19 1738.21 1264.09 1751.66 1250.64 1711.32"/>
    <polygon class="cls-186" points="1358.24 1765 1425.48 1765 1492.73 1765 1412.04 1742.99 1358.24 1765"/>
    <polygon class="cls-187" points="1452.38 1738 1492.73 1764.9 1506.18 1738 1452.38 1738"/>
    <polygon class="cls-188" points="1412.04 1743.11 1492.73 1765.11 1452.38 1738.21 1412.04 1743.11"/>
    <polygon class="cls-189" points="1183.39 1697.87 1237.19 1738.21 1250.64 1711.32 1183.39 1697.87"/>
    <polygon class="cls-190" points="1358.24 1765 1412.03 1778.45 1492.73 1765 1425.48 1765 1358.24 1765"/>
    <polygon class="cls-191" points="1533 1751.66 1533 1738 1506.18 1738 1533 1751.66"/>
    <polygon class="cls-192" points="1344.79 1590.41 1331.34 1604 1358.24 1604 1398.58 1604 1371.68 1563.58 1344.79 1590.41"/>
    <polygon class="cls-193" points="1425.48 1549.92 1465.83 1469.22 1378.16 1361.63 1425.48 1549.92"/>
    <polygon class="cls-194" points="1378.16 1361.63 1465.83 1469.22 1438.93 1388.53 1378.16 1361.63"/>
    <polygon class="cls-195" points="1371.68 1536 1398.58 1536 1425.48 1549.68 1378.16 1361.28 1371.68 1536"/>
    <polygon class="cls-196" points="1399 1603.72 1399 1576.82 1372.1 1563.37 1399 1603.72"/>
    <polygon class="cls-197" points="1331.34 1603.72 1344.79 1590.27 1304.44 1549.92 1331.34 1603.72"/>
    <polygon class="cls-198" points="1385.13 1173.34 1358.24 1186.79 1378.16 1361.63 1385.13 1173.34"/>
    <polygon class="cls-199" points="1277.54 1590.27 1331.34 1603.72 1304.44 1549.92 1277.54 1590.27"/>
    <polygon class="cls-200" points="1278 1549.92 1251.1 1563.37 1278 1590.27 1278 1549.92"/>
    <polygon class="cls-201" points="1329.27 1401.98 1290.99 1523.02 1304.44 1536.47 1329.27 1401.98"/>
    <polygon class="cls-202" points="1438.93 1186.79 1385.13 1173.34 1378.16 1361.63 1438.93 1186.79"/>
    <polygon class="cls-203" points="1439 1388.53 1439 1294.38 1439 1227.13 1439 1186.79 1378.23 1361.63 1439 1388.53"/>
    <polygon class="cls-204" points="1358.24 1186.79 1344.79 1240.58 1331.34 1307.83 1378.16 1361.63 1358.24 1186.79"/>
    <polygon class="cls-205" points="1304 1549.92 1344.35 1590.27 1304 1536.47 1304 1549.92"/>
    <polygon class="cls-206" points="1344.79 1590.27 1371.68 1563.37 1304.44 1536.47 1344.79 1590.27"/>
    <polygon class="cls-207" points="1329.27 1401.98 1264.09 1455.78 1290.99 1523.02 1329.27 1401.98"/>
    <polygon class="cls-208" points="1304.44 1550 1290.99 1550 1278 1550 1278 1590.27 1304.44 1550"/>
    <polygon class="cls-209" points="1264 1455.78 1264 1523 1290.99 1523 1264 1455.78"/>
    <polygon class="cls-210" points="1372 1563.37 1372 1536.47 1378.32 1361.63 1304.67 1536.47 1372 1563.37"/>
    <polygon class="cls-73" points="1304.44 1536.47 1378.16 1361.63 1329.27 1401.98 1304.44 1536.47"/>
    <polygon class="cls-211" points="1378.16 1361.63 1331.34 1307.83 1290.99 1388.53 1264.09 1455.78 1329.27 1401.98 1378.16 1361.63"/>
    <polygon class="cls-212" points="1264 1455.78 1250.6 1496.12 1237.12 1536.47 1264 1523.02 1264 1455.78"/>
    <polygon class="cls-213" points="1466 1469.22 1425.57 1549.92 1452.51 1576.82 1466 1536.47 1466 1469.22"/>
    <polygon class="cls-214" points="1277.54 1549.92 1237.19 1536.47 1250.64 1563.37 1277.54 1549.92"/>
    <polygon class="cls-215" points="1398.58 1577 1452.38 1577 1425.48 1563.55 1398.58 1577"/>
    <polygon class="cls-216" points="1399 1603.72 1452.38 1577 1399 1577 1399 1603.72"/>
    <polygon class="cls-217" points="1264.09 1523.02 1237.19 1536.47 1277.54 1549.92 1264.09 1523.02"/>
    <polygon class="cls-218" points="1425 1563.37 1451.9 1576.82 1425 1549.92 1425 1563.37"/>
    <polygon class="cls-219" points="1264.09 1523.02 1277.54 1549.92 1290.99 1540.95 1264.09 1523.02"/>
    <polygon class="cls-220" points="1291 1523 1264.09 1523 1291 1540.95 1291 1523"/>
    <polygon class="cls-221" points="1290.55 1540.95 1304 1549.92 1304 1536.47 1290.55 1540.95"/>
    <polygon class="cls-222" points="1304.44 1550 1290.99 1541.03 1277.54 1550 1290.99 1550 1304.44 1550"/>
    <polygon class="cls-223" points="1291 1523.02 1291 1540.95 1304.45 1536.47 1291 1523.02"/>
    <polygon class="cls-224" points="1425 1563.37 1425 1549.92 1398.1 1536.47 1425 1563.37"/>
    <polygon class="cls-225" points="1371.68 1536 1399 1576.82 1399 1536 1371.68 1536"/>
    <polygon class="cls-226" points="1372 1563.37 1398.9 1576.82 1372 1536.47 1372 1563.37"/>
    <polygon class="cls-227" points="1399 1576.82 1425.9 1563.37 1399 1536.47 1399 1576.82"/>
    <polygon class="cls-228" points="1573.43 1294 1586.88 1294 1640.67 1294 1613.78 1253.65 1546.53 1294 1573.43 1294"/>
    <polygon class="cls-229" points="1748 1361.63 1748 1334.73 1707.65 1348.18 1748 1361.63"/>
    <polygon class="cls-230" points="1720.9 1388.53 1694 1361.63 1694 1401.98 1720.9 1388.53"/>
    <polygon class="cls-231" points="1707.92 1348.18 1748.27 1334.73 1734.82 1307.83 1707.92 1348.18"/>
    <polygon class="cls-232" points="1519.63 1361.63 1586.88 1388.53 1533.08 1348.18 1519.63 1361.63"/>
    <polygon class="cls-233" points="1694 1401.98 1694 1361.63 1653.65 1388.53 1694 1401.98"/>
    <polygon class="cls-234" points="1721.37 1388.9 1748.27 1362 1694.47 1362 1721.37 1388.9"/>
    <polygon class="cls-235" points="1694.47 1362 1748.27 1362 1707.92 1348.55 1694.47 1362"/>
    <polygon class="cls-236" points="1573.43 1401.98 1586.88 1388.53 1519.63 1361.63 1573.43 1401.98"/>
    <polygon class="cls-237" points="1707.92 1348.18 1694.47 1267.48 1681.02 1334.73 1707.92 1348.18"/>
    <polygon class="cls-238" points="1519.63 1335 1492.73 1335 1533.08 1348.45 1519.63 1335"/>
    <polygon class="cls-239" points="1586.88 1389 1573.43 1402.45 1654.12 1389 1600.33 1389 1586.88 1389"/>
    <polygon class="cls-240" points="1681.02 1334.73 1694.47 1267.48 1654.12 1254.03 1681.02 1334.73"/>
    <polygon class="cls-241" points="1694.47 1401.98 1654.12 1388.53 1640.67 1415.43 1694.47 1401.98"/>
    <polygon class="cls-242" points="1734.82 1307.83 1694.47 1267.48 1707.92 1348.18 1734.82 1307.83"/>
    <polygon class="cls-243" points="1492.73 1334.73 1519.63 1361.63 1533.08 1348.18 1492.73 1334.73"/>
    <polygon class="cls-244" points="1681.02 1334.73 1654.12 1254.03 1640.67 1294.38 1681.02 1334.73"/>
    <polygon class="cls-245" points="1640.67 1294.35 1654.12 1254 1613.78 1254 1640.67 1294.35"/>
    <polygon class="cls-246" points="1519.63 1335 1533.08 1281.2 1492.73 1335 1519.63 1335"/>
    <polygon class="cls-247" points="1613.78 1254.03 1533.08 1280.93 1546.53 1294.38 1613.78 1254.03"/>
    <polygon class="cls-248" points="1640.67 1415.43 1654.12 1388.53 1573.43 1401.98 1640.67 1415.43"/>
    <polygon class="cls-249" points="1533.08 1307.83 1546.53 1294.38 1533.08 1280.93 1519.63 1334.73 1533.08 1307.83"/>
    <polygon class="cls-250" points="1519.63 1334.73 1533.08 1348.42 1586.88 1389 1600.33 1389 1573.43 1361.87 1519.63 1334.73"/>
    <polygon class="cls-251" points="1533.08 1308.1 1519.63 1335 1573.43 1335 1533.08 1308.1"/>
    <polygon class="cls-252" points="1586.88 1294 1573.43 1294 1546.53 1294 1573.43 1334.35 1586.88 1294"/>
    <polygon class="cls-253" points="1546.53 1294.38 1533.08 1307.83 1573.43 1334.73 1546.53 1294.38"/>
    <polygon class="cls-254" points="1573 1335 1519.63 1335 1573 1361.63 1573 1335"/>
    <polygon class="cls-255" points="1640.67 1335 1707.92 1348.45 1681.02 1335 1640.67 1335"/>
    <polygon class="cls-256" points="1641 1335 1681.02 1335 1641 1294.38 1641 1335"/>
    <polygon class="cls-257" points="1627.55 1321.28 1641 1334.73 1641 1294.38 1627.55 1321.28"/>
    <polygon class="cls-258" points="1654.12 1389 1640.67 1375.55 1600.33 1389 1654.12 1389"/>
    <polygon class="cls-259" points="1641 1375.08 1708.25 1348.18 1641 1334.73 1641 1375.08"/>
    <polygon class="cls-260" points="1600.33 1321 1627.22 1321 1640.67 1294.24 1573.43 1334.52 1600.33 1321"/>
    <polygon class="cls-261" points="1573.43 1334.35 1640.67 1294 1586.88 1294 1573.43 1334.35"/>
    <polygon class="cls-262" points="1654.12 1388.53 1694.47 1361.63 1640.67 1375.08 1654.12 1388.53"/>
    <polygon class="cls-263" points="1694.47 1361.63 1707.92 1348.18 1640.67 1375.08 1694.47 1361.63"/>
    <polygon class="cls-264" points="1573.43 1361.63 1600.33 1375.08 1586.88 1348.18 1573.43 1361.63"/>
    <polygon class="cls-265" points="1600 1388.53 1600 1375.08 1573.1 1361.63 1600 1388.53"/>
    <polygon class="cls-266" points="1641 1375.08 1641 1334.73 1627.55 1348.18 1641 1375.08"/>
    <polygon class="cls-267" points="1586.45 1348.18 1573 1334.73 1573 1361.63 1586.45 1348.18"/>
    <polygon class="cls-268" points="1600 1388.53 1640.67 1375 1600 1375 1600 1388.53"/>
    <polygon class="cls-269" points="1600.33 1375 1640.67 1375 1627.22 1348.1 1600.33 1375"/>
    <polygon class="cls-270" points="1600.33 1321.28 1573.43 1334.73 1586.88 1348.18 1600.33 1321.28"/>
    <polygon class="cls-271" points="1600 1334.73 1600 1321.28 1586.55 1348.18 1600 1334.73"/>
    <polygon class="cls-272" points="1627 1348.18 1627 1321.28 1600.1 1334.73 1627 1348.18"/>
    <polygon class="cls-273" points="1600 1334.73 1627.22 1321 1600 1321 1600 1334.73"/>
    <polygon class="cls-274" points="1627 1348.18 1640.45 1334.73 1627 1321.28 1627 1348.18"/>
    <polygon class="cls-275" points="1600 1348 1600 1334.73 1586.88 1348 1600 1348"/>
    <polygon class="cls-276" points="1600 1348 1627.22 1348 1600 1334.73 1600 1348"/>
    <polygon class="cls-277" points="1586.88 1348 1600 1375.08 1600 1348 1586.88 1348"/>
    <polygon class="cls-278" points="1600 1375.08 1627.22 1348 1600 1348 1600 1375.08"/>
    <polygon class="cls-279" points="1237.19 1321 1183.39 1334.45 1277.54 1321 1237.19 1321"/>
    <polygon class="cls-280" points="1196.84 1321 1183 1321 1183 1334.73 1237.19 1321 1196.84 1321"/>
    <polygon class="cls-281" points="1304.44 1308 1290.99 1281.1 1277.54 1308 1304.44 1308"/>
    <polygon class="cls-282" points="1142.65 1294.38 1183 1334.73 1183 1321.28 1142.65 1294.38"/>
    <polygon class="cls-283" points="1143.05 1241 1089.25 1241 1129.6 1281.35 1143.05 1241"/>
    <polygon class="cls-284" points="1210.29 1200.24 1169.94 1186.79 1183.39 1227.13 1210.29 1200.24"/>
    <polygon class="cls-285" points="1169.94 1186.79 1116.15 1200.24 1143.05 1240.58 1169.94 1186.79"/>
    <polygon class="cls-286" points="1143.05 1294.38 1116.15 1307.83 1183.39 1334.73 1143.05 1294.38"/>
    <polygon class="cls-287" points="1278 1308 1278 1321.28 1304.44 1308 1278 1308"/>
    <polygon class="cls-288" points="1089.25 1240.65 1075.8 1281 1129.6 1281 1089.25 1240.65"/>
    <polygon class="cls-289" points="1237.19 1321 1278 1321 1278 1307.83 1237.19 1321"/>
    <polygon class="cls-290" points="1129.6 1280.93 1116.15 1307.83 1143.05 1294.38 1129.6 1280.93"/>
    <polygon class="cls-291" points="1116.15 1200.65 1089.25 1241 1143.05 1241 1116.15 1200.65"/>
    <polygon class="cls-292" points="1278 1307.83 1291.45 1280.93 1278 1294.38 1278 1307.83"/>
    <polygon class="cls-293" points="1264.09 1254 1237.19 1227.12 1210.29 1200.21 1250.64 1254 1264.09 1254"/>
    <polygon class="cls-294" points="1290.99 1280.93 1264.09 1254.03 1277.54 1294.38 1290.99 1280.93"/>
    <polygon class="cls-295" points="1250.35 1254.03 1210 1200.24 1210 1227.13 1250.35 1254.03"/>
    <polygon class="cls-294" points="1277.54 1294.35 1264.09 1254 1250.64 1254 1277.54 1294.35"/>
    <polygon class="cls-296" points="1075.8 1281 1116.15 1307.9 1129.6 1281 1075.8 1281"/>
    <polygon class="cls-297" points="1210 1200.24 1183.39 1227 1210 1227 1210 1200.24"/>
    <polygon class="cls-298" points="1183 1321 1196.84 1321 1183 1307.83 1183 1321"/>
    <polygon class="cls-299" points="1210 1227 1183.39 1227 1210 1254.03 1210 1227"/>
    <polygon class="cls-300" points="1251 1280.93 1251 1254 1223.74 1254 1251 1280.93"/>
    <polygon class="cls-301" points="1251 1280.93 1251 1307.83 1277.9 1294.38 1251 1280.93"/>
    <polygon class="cls-302" points="1250.64 1254 1210 1227.13 1210 1254 1223.74 1254 1250.64 1254"/>
    <polygon class="cls-303" points="1250.64 1308 1278 1308 1278 1294.38 1250.64 1308"/>
    <polygon class="cls-304" points="1183 1227.13 1183 1280.93 1209.9 1254.03 1183 1227.13"/>
    <polygon class="cls-305" points="1250.64 1308 1237.19 1321.45 1277.54 1308 1250.64 1308"/>
    <polygon class="cls-294" points="1277.9 1294.38 1251 1254.03 1251 1280.93 1277.9 1294.38"/>
    <polygon class="cls-306" points="1183 1227.13 1142.65 1240.58 1183 1280.93 1183 1227.13"/>
    <polygon class="cls-307" points="1143.05 1240.65 1129.6 1281 1183.39 1281 1143.05 1240.65"/>
    <polygon class="cls-308" points="1129.6 1281 1143.05 1294.45 1183.39 1281 1129.6 1281"/>
    <polygon class="cls-309" points="1183 1307.83 1183 1280.93 1142.65 1294.38 1183 1321.28 1183 1307.83"/>
    <polygon class="cls-310" points="1210.29 1308 1237 1321.28 1237 1308 1210.29 1308"/>
    <polygon class="cls-311" points="1196.84 1321 1237.19 1321 1210.29 1307.55 1196.84 1321"/>
    <polygon class="cls-312" points="1237.19 1308 1251 1308 1251 1280.93 1237.19 1308"/>
    <polygon class="cls-313" points="1197 1294.38 1197 1321.28 1210.45 1307.83 1197 1294.38"/>
    <polygon class="cls-314" points="1237 1308 1237 1321.28 1250.64 1308 1237 1308"/>
    <polygon class="cls-315" points="1210 1254 1210 1280.93 1223.74 1254 1210 1254"/>
    <polygon class="cls-316" points="1183.55 1307.83 1197 1321.28 1197 1294.38 1183.55 1307.83"/>
    <polygon class="cls-317" points="1237 1281 1237 1307.83 1250.64 1281 1237 1281"/>
    <polygon class="cls-318" points="1237.19 1281 1250.64 1281 1223.74 1254.1 1237.19 1281"/>
    <polygon class="cls-319" points="1223.74 1254.1 1210.29 1281 1237.19 1281 1223.74 1254.1"/>
    <polygon class="cls-320" points="1183 1280.93 1183 1307.83 1196.45 1294.38 1183 1280.93"/>
    <polygon class="cls-321" points="1210 1254.03 1183.39 1281 1210 1281 1210 1254.03"/>
    <polygon class="cls-322" points="1210.29 1281 1183.39 1281 1196.84 1294.45 1210.29 1281"/>
    <polygon class="cls-323" points="1196.55 1294.38 1210 1307.83 1210 1280.93 1196.55 1294.38"/>
    <polygon class="cls-324" points="1210.29 1281 1237 1307.83 1237 1281 1210.29 1281"/>
    <polygon class="cls-325" points="1210 1308 1237.19 1308 1210 1280.93 1210 1308"/>
    <polygon class="cls-326" points="1169.94 1186.79 1143.05 1240.58 1183.39 1227.13 1169.94 1186.79"/>
    <polygon class="cls-12" points="1761.72 1738.21 1828.97 1697.87 1802.07 1590.27 1761.72 1738.21"/>
    <polygon class="cls-327" points="1546.53 1018.96 1854.37 1011.94 1573.43 951.22 1546.53 1018.96"/>
    <polygon class="cls-328" points="1506.18 1019.88 1546.53 1018.96 1169.94 864 1264.09 1025.39 1506.18 1019.88"/>
    <polygon class="cls-329" points="1573.43 951.22 1169.94 864 1546.53 1018.96 1573.43 951.22"/>
    <polygon class="cls-330" points="1533.08 1630.62 1654.12 1556.65 1546.53 1509.57 1533.08 1630.62"/>
    <polygon class="cls-331" points="1654.12 1556.65 1707.92 1442.33 1546.53 1509.57 1654.12 1556.65"/>
    <polygon class="cls-332" points="1533.08 1630.62 1627.22 1765.11 1654.12 1556.65 1533.08 1630.62"/>
    <polygon class="cls-333" points="1627.22 1765.11 1748.27 1617.17 1654.12 1556.65 1627.22 1765.11"/>
    <polygon class="cls-334" points="1748.27 1617.17 1775.17 1482.67 1654.12 1556.65 1748.27 1617.17"/>
    <polygon class="cls-335" points="1654.12 1556.65 1775.17 1482.67 1707.92 1442.33 1654.12 1556.65"/>
    <polygon class="cls-336" points="1075.8 1617.17 1116.15 1657.52 1183.39 1549.92 1075.8 1617.17"/>
    <polygon class="cls-337" points="1196.84 1415.43 1075.8 1469.22 1183.39 1549.92 1196.84 1415.43"/>
    <polygon class="cls-338" points="1076 1469.22 1076 1617.17 1183.6 1549.92 1076 1469.22"/>
    <polygon class="cls-339" points="1250.64 1401.98 1196.84 1415.43 1183.39 1549.92 1220.07 1469.22 1250.64 1401.98"/>
    <polygon class="cls-340" points="1546.53 1751.66 1600.33 1953.4 1627.22 1765.11 1546.53 1751.66"/>
    <polygon class="cls-341" points="1116.15 1334.73 1116.15 1334.73 1035.45 1375.08 1075.8 1469.22 1116.15 1334.73"/>
  </g>
</svg>
